<svg xmlns="http://www.w3.org/2000/svg" xmlns:xlink="http://www.w3.org/1999/xlink" style="margin: auto;display: block;" width="200px" height="200px" viewBox="0 0 100 100" preserveAspectRatio="xMidYMid">
<g transform="translate(50 50)">
<g>
<animateTransform attributeName="transform" type="rotate" values="0;40" keyTimes="0;1" dur="0.3921568627450981s" repeatCount="indefinite"></animateTransform><path d="M28.473672049807696 -5.5 L37.473672049807696 -5.5 L37.473672049807696 5.5 L28.473672049807696 5.5 A29 29 0 0 1 25.347430102223313 14.089279158739933 L25.347430102223313 14.089279158739933 L32.241830090294116 19.874367645918788 L25.171166383742182 28.300856520227544 L18.27676639567138 22.51576803304869 A29 29 0 0 1 10.360843904502063 27.08602801420951 L10.360843904502063 27.08602801420951 L11.923677503504438 35.94929779131938 L1.0907922203701472 37.859427745655616 L-0.4720413786322268 28.996157968545745 A29 29 0 0 1 -9.47369630408943 27.4089233341604 L-9.47369630408943 27.4089233341604 L-13.973696304089428 35.20315196822035 L-23.499975745718253 29.703151968220347 L-18.999975745718256 21.9089233341604 A29 29 0 0 1 -24.87538872359108 14.906878809805816 L-24.87538872359108 14.906878809805816 L-33.332622310664256 17.985060099736835 L-37.09484388724661 7.648441271091844 L-28.63761030017344 4.570259981160824 A29 29 0 0 1 -28.637610300173442 -4.570259981160817 L-28.637610300173442 -4.570259981160817 L-37.09484388724662 -7.648441271091834 L-33.332622310664256 -17.985060099736828 L-24.875388723591083 -14.90687880980581 A29 29 0 0 1 -18.99997574571827 -21.908923334160388 L-18.99997574571827 -21.908923334160388 L-23.499975745718277 -29.703151968220332 L-13.973696304089465 -35.203151968220325 L-9.47369630408946 -27.408923334160384 A29 29 0 0 1 -0.4720413786322275 -28.996157968545745 L-0.4720413786322275 -28.996157968545745 L1.0907922203701423 -37.85942774565562 L11.923677503504408 -35.949297791319395 L10.360843904502037 -27.08602801420952 A29 29 0 0 1 18.276766395671384 -22.51576803304869 L18.276766395671384 -22.51576803304869 L25.171166383742182 -28.300856520227548 L32.2418300902941 -19.87436764591881 L25.347430102223303 -14.089279158739954 A29 29 0 0 1 28.473672049807696 -5.499999999999995 M0 -20A20 20 0 1 0 0 20 A20 20 0 1 0 0 -20" fill="#f3f3f3"></path></g></g>
</svg>
